<svg viewBox="0 0 100 80" fill="none" xmlns="http://www.w3.org/2000/svg">
  <defs>
    <linearGradient id="heart1Grad" x1="0%" y1="0%" x2="100%" y2="100%">
      <stop offset="0%" style="stop-color:#FF6B6B"/>
      <stop offset="100%" style="stop-color:#FF8E8E"/>
    </linearGradient>
    <linearGradient id="heart2Grad" x1="0%" y1="0%" x2="100%" y2="100%">
      <stop offset="0%" style="stop-color:#FF9F43"/>
      <stop offset="100%" style="stop-color:#FFB56B"/>
    </linearGradient>
  </defs>
  <!-- Left heart -->
  <path d="M30 55C30 55 10 40 10 25C10 18 15 12 22 12C26 12 29 14 30 17C31 14 34 12 38 12C45 12 50 18 50 25C50 40 30 55 30 55Z" fill="url(#heart1Grad)" opacity="0.9"/>
  <!-- Right heart (slightly overlapping) -->
  <path d="M70 55C70 55 50 40 50 25C50 18 55 12 62 12C66 12 69 14 70 17C71 14 74 12 78 12C85 12 90 18 90 25C90 40 70 55 70 55Z" fill="url(#heart2Grad)" opacity="0.9"/>
  <!-- Connection spark -->
  <circle cx="50" cy="30" r="4" fill="#FFD700"/>
  <circle cx="50" cy="30" r="6" fill="#FFD700" opacity="0.3"/>
</svg>
